<svg width="35" height="35" viewBox="0 0 35 35" fill="none" xmlns="http://www.w3.org/2000/svg">
<g clip-path="url(#clip0_416_709)">
<path d="M29.7555 3.96826L25.1486 8.57592H0L4.80712 15.6545L4.80591 15.6557L9.0686 21.8968H21.0635L19.829 25.9111H10.0745V25.9304C8.75611 26.0316 7.7098 27.1258 7.7098 28.4709C7.7098 29.8832 8.85854 31.0319 10.2715 31.0319C11.6826 31.0319 12.8313 29.8832 12.8313 28.4709C12.8313 27.9633 12.6779 27.4905 12.422 27.0916H16.6965C16.4399 27.4905 16.2871 27.9627 16.2871 28.4709C16.2871 29.8832 17.4358 31.0319 18.8488 31.0319C20.2599 31.0319 21.4086 29.8832 21.4086 28.4709C21.4086 27.8372 21.1694 27.2636 20.7868 26.8157L26.2107 9.18492L30.2442 5.15138H35.0003V3.96896H29.7559V3.96826H29.7555ZM9.69167 20.7137L6.51383 16.0602H19.0667V14.8792H5.70917L2.23117 9.75643H24.7976L21.4258 20.7139C21.4258 20.7137 9.69167 20.7137 9.69167 20.7137ZM11.6494 28.4702C11.6494 29.2308 11.0312 29.8488 10.2713 29.8488C9.51078 29.8488 8.89274 29.2306 8.89274 28.4702C8.89274 27.7103 9.51095 27.0909 10.2713 27.0909C11.0312 27.0914 11.6494 27.7108 11.6494 28.4702ZM18.8486 29.8488C18.0876 29.8488 17.47 29.2306 17.47 28.4702C17.47 27.7103 18.0883 27.0909 18.8486 27.0909C19.6092 27.0909 20.2279 27.7103 20.2279 28.4702C20.2279 29.2306 19.609 29.8488 18.8486 29.8488Z" fill="#0C0C0C"/>
</g>
<defs>
<clipPath id="clip0_416_709">
<rect width="35" height="35" fill="white"/>
</clipPath>
</defs>
</svg>
