<svg width="17" height="17" viewBox="0 0 17 17" fill="none" xmlns="http://www.w3.org/2000/svg">
<path d="M9.43001 16.8293H7.64305C7.37419 16.8293 7.28039 16.8299 6.36419 14.56L5.65663 14.2724C3.72868 15.1471 3.50046 15.1471 3.42417 15.1471H3.27663L3.15083 15.039L1.88408 13.7996C1.69143 13.6073 1.62468 13.5406 2.61593 11.3004L2.32742 10.6178C0 9.78378 0 9.687 0 9.41217V7.6602C0 7.3857 0 7.29904 2.31971 6.40207L2.60822 5.71799C1.55966 3.51189 1.63181 3.44339 1.83863 3.24867L3.20092 1.91309L3.3701 1.90778C3.57576 1.90778 4.3388 2.18618 5.63996 2.7355L6.34545 2.44906C7.19481 0.170322 7.29905 0.170654 7.567 0.170654H9.35397C9.62167 0.170654 9.71579 0.170986 10.632 2.44143L11.3407 2.72696C13.2657 1.85346 13.4969 1.85346 13.5738 1.85346H13.7204L13.8462 1.9597L15.1129 3.19701C15.3056 3.39139 15.3714 3.4579 14.3802 5.699L14.6695 6.38549C16.9999 7.21595 16.9999 7.31239 16.9999 7.5878V9.3377C16.9999 9.60573 16.9999 9.7001 14.6772 10.5976L14.3905 11.2822C15.4338 13.4788 15.3649 13.5476 15.1696 13.7444L13.7969 15.0883L13.6268 15.093C13.4221 15.093 12.6608 14.8143 11.3614 14.2644L10.6518 14.5511C9.80013 16.8293 9.70335 16.8293 9.43001 16.8293ZM7.82881 16.106H9.23828C9.39999 15.7763 9.74963 14.9022 10.0295 14.1493L10.0859 13.9994L11.3692 13.4812L11.5072 13.5397C12.2721 13.8658 13.1761 14.2273 13.5284 14.3384L14.5188 13.3697C14.393 13.0209 14.0116 12.1677 13.6676 11.4479L13.5982 11.3016L14.1292 10.0341L14.2738 9.97825C15.0463 9.68086 15.9415 9.31373 16.2759 9.1463V7.78542C15.9376 7.62636 15.046 7.2871 14.2777 7.01467L14.1272 6.96094L13.5928 5.69211L13.6565 5.54906C13.9853 4.80709 14.3511 3.93185 14.4682 3.57923L13.4752 2.60846C13.1546 2.72033 12.2571 3.10496 11.5 3.45044L11.359 3.51513L10.0757 2.99781L10.0184 2.85509C9.71504 2.09794 9.33813 1.22005 9.16812 0.895045H7.75965C7.59702 1.22386 7.24855 2.09827 6.96933 2.85094L6.91385 2.99997L5.63408 3.51994L5.49608 3.46089C4.72948 3.13531 3.82364 2.7744 3.47019 2.66344L2.4815 3.63272C2.60557 3.98086 2.98812 4.83354 3.33095 5.55329L3.40128 5.69991L2.86762 6.96691L2.72399 7.02239C1.95266 7.31944 1.05901 7.68632 0.724474 7.85309V9.21571C1.06283 9.37535 1.95349 9.71553 2.72134 9.98911L2.87061 10.0434L3.40517 11.308L3.3414 11.4507C3.01259 12.1921 2.6472 13.0662 2.52969 13.4182L3.52484 14.3919C3.84445 14.2791 4.74084 13.8945 5.49882 13.5487L5.64071 13.4837L6.92139 14.0042L6.9787 14.147C7.28297 14.9044 7.65872 15.7808 7.82881 16.106ZM8.49988 11.4155C6.86127 11.4155 5.52693 10.1075 5.52693 8.49978C5.52693 6.89327 6.86102 5.58613 8.49988 5.58613C10.1376 5.58613 11.4687 6.89351 11.4687 8.49978C11.4687 10.1075 10.1376 11.4155 8.49988 11.4155ZM8.49988 6.3101C7.25958 6.3101 6.2514 7.29249 6.2514 8.49986C6.2514 9.70807 7.25933 10.6914 8.49988 10.6914C9.7381 10.6914 10.7454 9.70807 10.7454 8.49986C10.7451 7.29249 9.7381 6.3101 8.49988 6.3101Z" fill="#D2D2D2"/>
</svg>
