<svg width="24" height="24" viewBox="0 0 24 24" fill="none" xmlns="http://www.w3.org/2000/svg">
<path d="M17.6472 12.3084C17.3873 12.3084 17.176 12.5188 17.176 12.7787C17.176 13.0391 17.3873 13.249 17.6472 13.249H23.0594V21.2739H0.940071V13.2494H6.58635C6.8477 13.2494 7.05811 13.0395 7.05811 12.7791C7.05811 12.5192 6.84823 12.3088 6.58635 12.3088H0V22.2163H24V12.3084H17.6472Z" fill="#1940C1"/>
<path d="M11.4597 19.3456C11.5682 19.4547 11.7124 19.5103 11.8567 19.5103C11.8583 19.5103 11.8597 19.5098 11.8612 19.5092C11.8627 19.5086 11.8643 19.5079 11.8663 19.5079C11.8684 19.5079 11.8701 19.5086 11.8718 19.5092C11.8732 19.5098 11.8745 19.5103 11.8759 19.5103C12.0215 19.5103 12.1658 19.4533 12.2733 19.3456L15.4163 16.2036C15.6362 15.9832 15.6362 15.6271 15.4163 15.4073C15.1959 15.1878 14.8404 15.1878 14.62 15.4073L12.4394 17.5888V2.34618C12.4394 2.03588 12.1876 1.78357 11.8759 1.78357C11.566 1.78357 11.3127 2.03588 11.3127 2.34618V17.6077L9.11313 15.4077C8.89327 15.1882 8.53722 15.1882 8.31724 15.4077C8.09738 15.6275 8.09738 15.9836 8.31724 16.204L11.4597 19.3456Z" fill="#1940C1"/>
<path d="M11.4597 19.3456C11.5682 19.4547 11.7124 19.5103 11.8567 19.5103C11.8583 19.5103 11.8597 19.5098 11.8612 19.5092C11.8627 19.5086 11.8643 19.5079 11.8663 19.5079C11.8684 19.5079 11.8701 19.5086 11.8718 19.5092C11.8732 19.5098 11.8745 19.5103 11.8759 19.5103C12.0215 19.5103 12.1658 19.4533 12.2733 19.3456L15.4163 16.2036C15.6362 15.9832 15.6362 15.6271 15.4163 15.4073C15.1959 15.1878 14.8404 15.1878 14.62 15.4073L12.4394 17.5888V2.34618C12.4394 2.03588 12.1876 1.78357 11.8759 1.78357C11.566 1.78357 11.3127 2.03588 11.3127 2.34618V17.6077L9.11313 15.4077C8.89327 15.1882 8.53722 15.1882 8.31724 15.4077C8.09738 15.6275 8.09738 15.9836 8.31724 16.204L11.4597 19.3456Z" stroke="#1940C1"/>
</svg>
