<svg width="237" height="59" viewBox="0 0 237 59" fill="none" xmlns="http://www.w3.org/2000/svg">
<path d="M67.144 27.296H71.656V41H75.088V27.296H79.624V24.2H67.144V27.296ZM78.1514 35.48C78.1514 36.616 78.4154 37.624 78.9434 38.504C79.4874 39.368 80.2154 40.04 81.1274 40.52C82.0554 41 83.1034 41.24 84.2714 41.24C85.4394 41.24 86.4794 41 87.3914 40.52C88.3194 40.04 89.0474 39.368 89.5754 38.504C90.1194 37.624 90.3914 36.616 90.3914 35.48C90.3914 34.328 90.1194 33.32 89.5754 32.456C89.0474 31.592 88.3194 30.92 87.3914 30.44C86.4794 29.96 85.4394 29.72 84.2714 29.72C83.1034 29.72 82.0554 29.96 81.1274 30.44C80.2154 30.92 79.4874 31.592 78.9434 32.456C78.4154 33.32 78.1514 34.328 78.1514 35.48ZM81.3194 35.48C81.3194 34.856 81.4474 34.304 81.7034 33.824C81.9754 33.344 82.3354 32.976 82.7834 32.72C83.2314 32.464 83.7274 32.336 84.2714 32.336C84.8154 32.336 85.3114 32.464 85.7594 32.72C86.2074 32.976 86.5594 33.344 86.8154 33.824C87.0874 34.304 87.2234 34.856 87.2234 35.48C87.2234 36.104 87.0874 36.656 86.8154 37.136C86.5594 37.6 86.2074 37.968 85.7594 38.24C85.3114 38.496 84.8154 38.624 84.2714 38.624C83.7274 38.624 83.2314 38.496 82.7834 38.24C82.3354 37.968 81.9754 37.6 81.7034 37.136C81.4474 36.656 81.3194 36.104 81.3194 35.48ZM96.7075 38.048H100.476V35.432H97.4275L96.7075 38.048ZM99.1075 29.96V41H102.204V29.96H99.1075ZM95.4835 29.96H92.3875V33.128C92.3875 34.2 92.5155 35.104 92.7715 35.84C93.0275 36.576 93.4675 37.128 94.0915 37.496C94.7315 37.864 95.6035 38.048 96.7075 38.048L97.4275 35.432C96.9635 35.432 96.5875 35.36 96.2995 35.216C96.0115 35.072 95.8035 34.848 95.6755 34.544C95.5475 34.24 95.4835 33.84 95.4835 33.344V29.96ZM105.331 29.96V41H108.331V29.96H105.331ZM112.387 29.96L107.635 34.52L112.891 41H116.587L111.355 34.52L116.107 29.96H112.387ZM120.432 37.712C120.432 37.376 120.512 37.088 120.672 36.848C120.848 36.608 121.104 36.416 121.44 36.272C121.776 36.128 122.184 36.056 122.664 36.056C123.32 36.056 123.888 36.136 124.368 36.296C124.848 36.456 125.312 36.704 125.76 37.04V35.528C125.616 35.352 125.368 35.168 125.016 34.976C124.664 34.784 124.232 34.616 123.72 34.472C123.208 34.328 122.656 34.256 122.064 34.256C121.104 34.256 120.264 34.4 119.544 34.688C118.84 34.976 118.288 35.392 117.888 35.936C117.504 36.464 117.312 37.104 117.312 37.856C117.312 38.592 117.48 39.216 117.816 39.728C118.168 40.224 118.64 40.6 119.232 40.856C119.824 41.112 120.496 41.24 121.248 41.24C122.016 41.24 122.704 41.112 123.312 40.856C123.936 40.584 124.432 40.2 124.8 39.704C125.168 39.192 125.352 38.584 125.352 37.88L124.968 36.584C124.968 37.192 124.848 37.68 124.608 38.048C124.368 38.416 124.04 38.68 123.624 38.84C123.208 39 122.752 39.08 122.256 39.08C121.92 39.08 121.608 39.032 121.32 38.936C121.048 38.824 120.832 38.672 120.672 38.48C120.512 38.272 120.432 38.016 120.432 37.712ZM119.448 33.104C119.624 32.992 119.88 32.856 120.215 32.696C120.568 32.536 120.968 32.4 121.416 32.288C121.88 32.16 122.376 32.096 122.904 32.096C123.512 32.096 124.008 32.24 124.392 32.528C124.776 32.8 124.968 33.184 124.968 33.68V41H127.968V33.176C127.968 32.424 127.76 31.792 127.344 31.28C126.928 30.752 126.352 30.352 125.616 30.08C124.896 29.808 124.056 29.672 123.096 29.672C122.104 29.672 121.2 29.816 120.384 30.104C119.568 30.376 118.88 30.664 118.32 30.968L119.448 33.104ZM148.636 32.696L148.756 29.12L138.244 38.264L138.124 41.84L148.636 32.696ZM141.124 29.96H138.124V41.84L141.124 38.696V29.96ZM148.756 29.12L145.756 32.264V41H148.756V29.12ZM156.655 35.48C158.159 35.528 159.287 35.304 160.039 34.808C160.807 34.296 161.191 33.64 161.191 32.84C161.191 32.248 160.999 31.72 160.615 31.256C160.247 30.776 159.735 30.4 159.079 30.128C158.439 29.856 157.703 29.72 156.871 29.72C155.975 29.72 155.191 29.88 154.519 30.2C153.847 30.52 153.319 30.968 152.935 31.544C152.567 32.104 152.383 32.752 152.383 33.488H155.263C155.263 33.232 155.327 33 155.455 32.792C155.583 32.568 155.767 32.392 156.007 32.264C156.247 32.136 156.543 32.072 156.895 32.072C157.311 32.072 157.647 32.176 157.903 32.384C158.159 32.576 158.287 32.848 158.287 33.2C158.287 33.52 158.159 33.792 157.903 34.016C157.647 34.24 157.231 34.352 156.655 34.352V35.48ZM156.823 41.24C157.735 41.24 158.559 41.104 159.295 40.832C160.031 40.544 160.607 40.144 161.023 39.632C161.455 39.104 161.671 38.48 161.671 37.76C161.671 36.768 161.223 36.008 160.327 35.48C159.447 34.952 158.223 34.712 156.655 34.76V36.08C157.103 36.08 157.479 36.136 157.783 36.248C158.103 36.36 158.343 36.528 158.503 36.752C158.663 36.96 158.743 37.216 158.743 37.52C158.743 37.808 158.663 38.064 158.503 38.288C158.343 38.496 158.119 38.656 157.831 38.768C157.543 38.88 157.199 38.936 156.799 38.936C156.223 38.936 155.767 38.792 155.431 38.504C155.111 38.2 154.895 37.8 154.783 37.304H151.807C151.935 38.488 152.431 39.44 153.295 40.16C154.159 40.88 155.335 41.24 156.823 41.24ZM175.294 29.96H164.734V36.536C164.734 37.224 164.558 37.68 164.206 37.904C163.87 38.112 163.462 38.216 162.982 38.216V41C164.15 41 165.078 40.864 165.766 40.592C166.47 40.304 166.974 39.88 167.278 39.32C167.582 38.744 167.734 38.024 167.734 37.16V32.792H172.294V41H175.294V29.96ZM177.995 35.48C177.995 36.616 178.259 37.624 178.787 38.504C179.331 39.368 180.059 40.04 180.971 40.52C181.899 41 182.947 41.24 184.115 41.24C185.283 41.24 186.323 41 187.235 40.52C188.163 40.04 188.891 39.368 189.419 38.504C189.963 37.624 190.235 36.616 190.235 35.48C190.235 34.328 189.963 33.32 189.419 32.456C188.891 31.592 188.163 30.92 187.235 30.44C186.323 29.96 185.283 29.72 184.115 29.72C182.947 29.72 181.899 29.96 180.971 30.44C180.059 30.92 179.331 31.592 178.787 32.456C178.259 33.32 177.995 34.328 177.995 35.48ZM181.163 35.48C181.163 34.856 181.291 34.304 181.547 33.824C181.819 33.344 182.179 32.976 182.627 32.72C183.075 32.464 183.571 32.336 184.115 32.336C184.659 32.336 185.155 32.464 185.603 32.72C186.051 32.976 186.403 33.344 186.659 33.824C186.931 34.304 187.067 34.856 187.067 35.48C187.067 36.104 186.931 36.656 186.659 37.136C186.403 37.6 186.051 37.968 185.603 38.24C185.155 38.496 184.659 38.624 184.115 38.624C183.571 38.624 183.075 38.496 182.627 38.24C182.179 37.968 181.819 37.6 181.547 37.136C181.291 36.656 181.163 36.104 181.163 35.48ZM203.103 41H206.295L203.103 29.12L201.519 33.056L203.103 41ZM197.967 38.312L198.687 41.744L203.343 33.68L203.103 29.12L197.967 38.312ZM198.687 41.744L199.407 38.312L194.343 29.12L194.103 33.68L198.687 41.744ZM191.151 41H194.343L195.927 33.056L194.343 29.12L191.151 41ZM210.15 37.712C210.15 37.376 210.23 37.088 210.39 36.848C210.566 36.608 210.822 36.416 211.158 36.272C211.494 36.128 211.902 36.056 212.382 36.056C213.038 36.056 213.606 36.136 214.086 36.296C214.566 36.456 215.03 36.704 215.478 37.04V35.528C215.334 35.352 215.086 35.168 214.734 34.976C214.382 34.784 213.95 34.616 213.438 34.472C212.926 34.328 212.374 34.256 211.782 34.256C210.822 34.256 209.982 34.4 209.262 34.688C208.558 34.976 208.006 35.392 207.606 35.936C207.222 36.464 207.03 37.104 207.03 37.856C207.03 38.592 207.198 39.216 207.534 39.728C207.886 40.224 208.358 40.6 208.95 40.856C209.542 41.112 210.214 41.24 210.966 41.24C211.734 41.24 212.422 41.112 213.03 40.856C213.654 40.584 214.15 40.2 214.518 39.704C214.886 39.192 215.07 38.584 215.07 37.88L214.686 36.584C214.686 37.192 214.566 37.68 214.326 38.048C214.086 38.416 213.758 38.68 213.342 38.84C212.926 39 212.47 39.08 211.974 39.08C211.638 39.08 211.326 39.032 211.038 38.936C210.766 38.824 210.55 38.672 210.39 38.48C210.23 38.272 210.15 38.016 210.15 37.712ZM209.166 33.104C209.342 32.992 209.598 32.856 209.934 32.696C210.286 32.536 210.686 32.4 211.134 32.288C211.598 32.16 212.094 32.096 212.622 32.096C213.23 32.096 213.726 32.24 214.11 32.528C214.494 32.8 214.686 33.184 214.686 33.68V41H217.686V33.176C217.686 32.424 217.478 31.792 217.062 31.28C216.646 30.752 216.07 30.352 215.334 30.08C214.614 29.808 213.774 29.672 212.814 29.672C211.822 29.672 210.918 29.816 210.102 30.104C209.286 30.376 208.598 30.664 208.038 30.968L209.166 33.104Z" fill="#133192"/>
<path d="M22.168 58.1087C22.168 58.1087 42.7684 20.8259 73 0C73 0 37.0594 19.5943 21.9447 45.5697C21.9447 45.5697 14.9616 40.2011 0 32.246C0 32.246 15.3104 44.9253 22.168 58.1087Z" fill="#CF0602"/>
<path d="M21.3853 36.8914C25.4663 36.8914 28.7746 33.583 28.7746 29.502C28.7746 25.421 25.4663 22.1127 21.3853 22.1127C17.3043 22.1127 13.996 25.421 13.996 29.502C13.996 33.583 17.3043 36.8914 21.3853 36.8914Z" fill="#1C43BF"/>
</svg>
