<svg width="146" height="38" viewBox="0 0 146 38" fill="none" xmlns="http://www.w3.org/2000/svg">
<path d="M19 38C29.4934 38 38 29.4934 38 19C38 8.50659 29.4934 0 19 0C8.50659 0 0 8.50659 0 19C0 29.4934 8.50659 38 19 38Z" fill="#1C43BF"/>
<path d="M8.71875 11.7989L13.5987 22.2641L20.2218 12.8053L8.71875 11.7989ZM29.5736 25.1808L16.6647 16.142L15.5175 17.7803L28.4264 26.8192L29.5736 25.1808Z" fill="white"/>
<path d="M48.694 19.898H56.114V17.77H48.694V19.898ZM54.616 14.2V24H56.982V14.2H54.616ZM48.036 14.2V24H50.402V14.2H48.036ZM60.5819 22.11H65.7619L65.6079 20.304H60.7499L60.5819 22.11ZM63.1439 17.798L64.5299 20.976L64.4459 21.578L65.6219 24H68.3099L63.1439 13.584L57.9919 24H60.6659L61.8839 21.48L61.7719 20.962L63.1439 17.798ZM73.618 14.2V24H75.984V16.314H79.442V14.2H73.618ZM89.2401 14.2H81.1901V19.996C81.1901 20.2947 81.1574 20.57 81.0921 20.822C81.0267 21.074 80.9287 21.2887 80.7981 21.466C80.6767 21.634 80.5227 21.7647 80.3361 21.858C80.1587 21.9513 79.9534 21.998 79.7201 21.998V24C80.6254 24 81.3627 23.8507 81.9321 23.552C82.5014 23.244 82.9167 22.782 83.1781 22.166C83.4487 21.5407 83.5841 20.7707 83.5841 19.856V16.314H86.8321V24H89.2401V14.2ZM92.9295 22.11H98.1095L97.9555 20.304H93.0975L92.9295 22.11ZM95.4915 17.798L96.8775 20.976L96.7935 21.578L97.9695 24H100.658L95.4915 13.584L90.3395 24H93.0135L94.2315 21.48L94.1195 20.962L95.4915 17.798ZM103.448 19.128H105.282C105.964 19.128 106.561 19.0347 107.074 18.848C107.597 18.652 108.008 18.372 108.306 18.008C108.614 17.644 108.768 17.2053 108.768 16.692C108.768 16.132 108.614 15.67 108.306 15.306C108.008 14.9327 107.597 14.6573 107.074 14.48C106.561 14.2933 105.964 14.2 105.282 14.2H101.684V24H105.52C106.295 24 106.967 23.9067 107.536 23.72C108.106 23.524 108.544 23.2253 108.852 22.824C109.17 22.4227 109.328 21.8953 109.328 21.242C109.328 20.7473 109.216 20.3273 108.992 19.982C108.778 19.6273 108.488 19.338 108.124 19.114C107.76 18.8807 107.354 18.7127 106.906 18.61C106.458 18.5073 105.996 18.456 105.52 18.456H103.448V19.744H105.254C105.488 19.744 105.698 19.7673 105.884 19.814C106.08 19.8513 106.253 19.9167 106.402 20.01C106.552 20.1033 106.668 20.2247 106.752 20.374C106.836 20.5233 106.878 20.7007 106.878 20.906C106.878 21.2233 106.804 21.4753 106.654 21.662C106.514 21.8393 106.323 21.97 106.08 22.054C105.838 22.1287 105.562 22.166 105.254 22.166H104.05V16.034H105.03C105.441 16.034 105.758 16.118 105.982 16.286C106.206 16.454 106.318 16.706 106.318 17.042C106.318 17.266 106.267 17.4573 106.164 17.616C106.062 17.7653 105.912 17.882 105.716 17.966C105.53 18.05 105.301 18.092 105.03 18.092H103.448V19.128ZM111.639 19.898H119.059V17.77H111.639V19.898ZM117.561 14.2V24H119.927V14.2H117.561ZM110.981 14.2V24H113.347V14.2H110.981ZM129.729 14.2H127.265L124.661 20.024L125.683 20.038L123.471 14.2H120.825L124.031 21.018L122.701 24H125.123L129.729 14.2ZM131.299 19.898H136.031V17.77H131.299V19.898ZM130.641 14.2V24H133.007V14.2H130.641ZM137.067 19.1C137.067 18.5213 137.184 18.0127 137.417 17.574C137.651 17.126 137.973 16.776 138.383 16.524C138.803 16.272 139.289 16.146 139.839 16.146C140.418 16.146 140.913 16.272 141.323 16.524C141.734 16.776 142.051 17.126 142.275 17.574C142.499 18.0127 142.611 18.5213 142.611 19.1C142.611 19.6787 142.495 20.192 142.261 20.64C142.028 21.0787 141.706 21.424 141.295 21.676C140.885 21.928 140.399 22.054 139.839 22.054C139.289 22.054 138.803 21.928 138.383 21.676C137.973 21.424 137.651 21.0787 137.417 20.64C137.184 20.192 137.067 19.6787 137.067 19.1ZM134.575 19.1C134.575 19.856 134.701 20.5513 134.953 21.186C135.215 21.8207 135.579 22.3713 136.045 22.838C136.521 23.3047 137.081 23.6687 137.725 23.93C138.369 24.182 139.074 24.308 139.839 24.308C140.614 24.308 141.323 24.182 141.967 23.93C142.611 23.6687 143.167 23.3047 143.633 22.838C144.109 22.3713 144.473 21.8207 144.725 21.186C144.987 20.5513 145.117 19.856 145.117 19.1C145.117 18.344 144.987 17.6533 144.725 17.028C144.464 16.4027 144.095 15.8613 143.619 15.404C143.143 14.9467 142.583 14.5967 141.939 14.354C141.305 14.102 140.605 13.976 139.839 13.976C139.102 13.976 138.411 14.102 137.767 14.354C137.123 14.5967 136.563 14.9467 136.087 15.404C135.611 15.8613 135.238 16.4027 134.967 17.028C134.706 17.6533 134.575 18.344 134.575 19.1Z" fill="#1940C1"/>
</svg>
